<?xml version="1.0" standalone="no"?>
<!DOCTYPE svg PUBLIC "-//W3C//DTD SVG 20010904//EN"
 "http://www.w3.org/TR/2001/REC-SVG-20010904/DTD/svg10.dtd">
<svg version="1.0" xmlns="http://www.w3.org/2000/svg"
 width="415.000000pt" height="415.000000pt" viewBox="0 0 415.000000 415.000000"
 preserveAspectRatio="xMidYMid meet">
<metadata>
Created by potrace 1.11, written by Peter Selinger 2001-2013
</metadata>
<g transform="translate(0.000000,415.000000) scale(0.100000,-0.100000)"
fill="#000000" stroke="none">
<path d="M1375 3602 c19 -81 163 -721 169 -752 2 -14 28 -126 56 -250 28 -124
53 -236 56 -250 3 -14 14 -63 25 -110 11 -47 24 -105 29 -130 5 -25 12 -54 14
-65 3 -11 11 -49 19 -85 8 -36 33 -147 56 -247 22 -100 42 -192 45 -205 2 -13
12 -54 21 -93 9 -38 19 -80 21 -91 2 -12 29 -131 59 -264 30 -133 57 -252 59
-264 2 -11 10 -43 16 -71 6 -27 13 -59 16 -70 2 -11 11 -54 21 -95 16 -74 17
-75 26 -40 9 34 142 624 151 672 2 13 14 66 26 118 18 83 24 109 36 155 4 18
65 290 69 310 3 11 16 72 31 135 14 63 28 126 30 140 3 14 7 33 10 42 3 9 7
25 9 36 2 11 17 82 35 158 17 77 63 281 101 454 39 173 73 323 75 333 7 29 11
46 54 242 23 105 43 198 46 208 2 10 5 26 8 35 3 9 8 32 11 51 3 19 8 38 11
43 3 4 -316 8 -710 8 l-714 0 13 -58z"/>
<path d="M1060 3410 c-18 -16 -74 -69 -124 -117 -296 -285 -469 -448 -477
-451 -17 -6 -9 -23 58 -125 36 -56 137 -210 223 -342 86 -132 205 -314 265
-405 115 -175 210 -321 317 -485 36 -55 121 -185 190 -290 68 -104 148 -226
176 -270 29 -44 52 -77 52 -73 0 8 -641 2582 -644 2585 -2 2 -17 -10 -36 -27z"/>
<path d="M2895 2802 c-88 -350 -160 -641 -161 -647 -1 -5 -12 -48 -24 -95 -12
-47 -24 -92 -26 -100 -16 -63 -35 -138 -38 -155 -2 -11 -12 -49 -21 -85 -9
-36 -18 -72 -20 -80 -2 -8 -31 -125 -65 -260 -34 -135 -63 -252 -65 -260 -2
-8 -15 -62 -30 -120 -15 -58 -29 -116 -31 -130 -5 -24 24 18 326 480 81 124
196 299 255 390 59 91 137 210 173 265 36 55 106 163 157 240 246 376 375 574
375 578 0 4 -83 85 -197 193 -28 27 -124 119 -214 204 -89 85 -172 164 -183
175 -56 53 -39 99 -211 -593z"/>
<path d="M3860 2518 c-64 -44 -69 -136 -10 -178 98 -70 220 34 165 140 -29 56
-102 74 -155 38z m97 -13 c48 -15 55 -118 10 -150 -34 -24 -75 -19 -108 15
-22 21 -28 36 -25 55 10 52 19 67 49 80 31 13 34 13 74 0z"/>
<path d="M3874 2425 c1 -37 5 -55 14 -55 6 0 12 9 12 20 0 12 7 20 16 20 9 0
18 -9 21 -20 3 -11 12 -20 19 -20 16 0 16 6 5 35 -5 11 -5 25 0 31 19 24 -2
44 -45 44 l-42 0 0 -55z m62 16 c-10 -16 -36 -13 -36 3 0 17 21 27 34 16 4 -5
5 -13 2 -19z"/>
<path d="M3596 2157 c-10 -12 -34 -49 -56 -82 -21 -33 -128 -199 -239 -370
l-200 -310 254 -3 c140 -1 369 -1 509 0 l255 3 -43 65 c-81 121 -380 585 -422
652 l-41 68 -17 -23z"/>
<path d="M351 1888 c-101 -156 -213 -330 -251 -388 l-68 -105 254 -3 c140 -1
369 -1 509 0 l254 3 -249 385 c-136 211 -253 386 -258 388 -5 1 -91 -125 -191
-280z"/>
</g>
</svg>
